<svg width="12" height="12" viewBox="0 0 12 12" fill="none" xmlns="http://www.w3.org/2000/svg">
<mask id="path-1-inside-1" fill="white">
<path fill-rule="evenodd" clip-rule="evenodd" d="M6 1.5C3.51472 1.5 1.5 3.51472 1.5 6C1.5 8.48528 3.51472 10.5 6 10.5C8.48528 10.5 10.5 8.48528 10.5 6C10.5 3.51472 8.48528 1.5 6 1.5ZM0.5 6C0.5 2.96243 2.96243 0.5 6 0.5C9.03757 0.5 11.5 2.96243 11.5 6C11.5 9.03757 9.03757 11.5 6 11.5C2.96243 11.5 0.5 9.03757 0.5 6Z"/>
</mask>
<path fill-rule="evenodd" clip-rule="evenodd" d="M6 1.5C3.51472 1.5 1.5 3.51472 1.5 6C1.5 8.48528 3.51472 10.5 6 10.5C8.48528 10.5 10.5 8.48528 10.5 6C10.5 3.51472 8.48528 1.5 6 1.5ZM0.5 6C0.5 2.96243 2.96243 0.5 6 0.5C9.03757 0.5 11.5 2.96243 11.5 6C11.5 9.03757 9.03757 11.5 6 11.5C2.96243 11.5 0.5 9.03757 0.5 6Z" fill="black" fill-opacity="0.8"/>
<path d="M1.75 6C1.75 5.71584 1.77785 5.43844 1.8309 5.17029L1.34041 5.07325C1.28107 5.37319 1.25 5.68309 1.25 6H1.75ZM2.4657 3.63881C2.77605 3.17523 3.17523 2.77605 3.63881 2.4657L3.36065 2.05021C2.84276 2.39693 2.39693 2.84276 2.05021 3.36065L2.4657 3.63881ZM5.17029 1.8309C5.43844 1.77785 5.71584 1.75 6 1.75V1.25C5.68309 1.25 5.37319 1.28107 5.07325 1.34041L5.17029 1.8309ZM6 1.75C6.28416 1.75 6.56156 1.77785 6.82971 1.8309L6.92675 1.34041C6.62681 1.28107 6.31691 1.25 6 1.25V1.75ZM8.36119 2.4657C8.82477 2.77605 9.22395 3.17523 9.5343 3.63881L9.94979 3.36065C9.60307 2.84276 9.15724 2.39693 8.63935 2.05021L8.36119 2.4657ZM10.1691 5.17029C10.2221 5.43844 10.25 5.71584 10.25 6H10.75C10.75 5.68309 10.7189 5.37319 10.6596 5.07325L10.1691 5.17029ZM10.25 6C10.25 6.28416 10.2221 6.56156 10.1691 6.82971L10.6596 6.92675C10.7189 6.62681 10.75 6.31691 10.75 6H10.25ZM9.5343 8.36119C9.22395 8.82477 8.82477 9.22395 8.36119 9.5343L8.63935 9.94979C9.15724 9.60307 9.60307 9.15724 9.94979 8.63935L9.5343 8.36119ZM6.82971 10.1691C6.56156 10.2221 6.28416 10.25 6 10.25V10.75C6.31691 10.75 6.62681 10.7189 6.92675 10.6596L6.82971 10.1691ZM6 10.25C5.71584 10.25 5.43844 10.2221 5.17029 10.1691L5.07325 10.6596C5.37319 10.7189 5.68309 10.75 6 10.75V10.25ZM3.63881 9.5343C3.17523 9.22395 2.77605 8.82477 2.4657 8.36119L2.05021 8.63935C2.39693 9.15724 2.84276 9.60307 3.36065 9.94979L3.63881 9.5343ZM1.8309 6.82971C1.77785 6.56156 1.75 6.28416 1.75 6H1.25C1.25 6.31691 1.28107 6.62681 1.34041 6.92675L1.8309 6.82971ZM6 0.25C5.6163 0.25 5.24115 0.287617 4.87809 0.35944L4.97513 0.849934C5.3064 0.784399 5.64906 0.75 6 0.75V0.25ZM2.80503 1.21865C2.1781 1.63837 1.63837 2.1781 1.21865 2.80503L1.63413 3.08319C2.0175 2.51057 2.51057 2.0175 3.08319 1.63413L2.80503 1.21865ZM0.35944 4.87809C0.287617 5.24115 0.25 5.6163 0.25 6H0.75C0.75 5.64906 0.784399 5.3064 0.849934 4.97513L0.35944 4.87809ZM0.25 6C0.25 6.3837 0.287617 6.75885 0.35944 7.12191L0.849934 7.02487C0.784399 6.6936 0.75 6.35094 0.75 6H0.25ZM1.21865 9.19497C1.63837 9.8219 2.1781 10.3616 2.80503 10.7814L3.08319 10.3659C2.51057 9.9825 2.0175 9.48943 1.63413 8.91681L1.21865 9.19497ZM4.87809 11.6406C5.24115 11.7124 5.6163 11.75 6 11.75V11.25C5.64906 11.25 5.3064 11.2156 4.97513 11.1501L4.87809 11.6406ZM6 11.75C6.3837 11.75 6.75885 11.7124 7.12191 11.6406L7.02487 11.1501C6.6936 11.2156 6.35094 11.25 6 11.25V11.75ZM9.19497 10.7814C9.8219 10.3616 10.3616 9.8219 10.7814 9.19497L10.3659 8.91681C9.9825 9.48943 9.48943 9.9825 8.91681 10.3659L9.19497 10.7814ZM11.6406 7.12191C11.7124 6.75885 11.75 6.3837 11.75 6H11.25C11.25 6.35094 11.2156 6.6936 11.1501 7.02487L11.6406 7.12191ZM11.75 6C11.75 5.6163 11.7124 5.24115 11.6406 4.87809L11.1501 4.97513C11.2156 5.3064 11.25 5.64906 11.25 6H11.75ZM10.7814 2.80503C10.3616 2.1781 9.8219 1.63837 9.19497 1.21865L8.91681 1.63413C9.48943 2.0175 9.9825 2.51057 10.3659 3.08319L10.7814 2.80503ZM7.12191 0.35944C6.75885 0.287617 6.3837 0.25 6 0.25V0.75C6.35094 0.75 6.6936 0.784399 7.02487 0.849934L7.12191 0.35944ZM2 6C2 5.73222 2.02624 5.47106 2.07615 5.21881L1.09516 5.02474C1.03268 5.34056 1 5.66671 1 6H2ZM2.67344 3.77789C2.96562 3.34147 3.34147 2.96562 3.77789 2.67344L3.22157 1.84247C2.67653 2.20737 2.20737 2.67653 1.84247 3.22157L2.67344 3.77789ZM5.21881 2.07615C5.47106 2.02624 5.73222 2 6 2V1C5.66671 1 5.34056 1.03268 5.02474 1.09516L5.21881 2.07615ZM6 2C6.26778 2 6.52894 2.02624 6.78119 2.07615L6.97526 1.09516C6.65944 1.03268 6.33329 1 6 1V2ZM8.22211 2.67344C8.65853 2.96562 9.03438 3.34147 9.32656 3.77789L10.1575 3.22157C9.79263 2.67653 9.32347 2.20737 8.77843 1.84247L8.22211 2.67344ZM9.92385 5.21881C9.97376 5.47106 10 5.73222 10 6H11C11 5.66671 10.9673 5.34056 10.9048 5.02474L9.92385 5.21881ZM10 6C10 6.26778 9.97376 6.52894 9.92385 6.78119L10.9048 6.97526C10.9673 6.65944 11 6.33329 11 6H10ZM9.32656 8.22211C9.03438 8.65853 8.65853 9.03438 8.22211 9.32656L8.77843 10.1575C9.32347 9.79263 9.79263 9.32347 10.1575 8.77843L9.32656 8.22211ZM6.78119 9.92385C6.52894 9.97376 6.26778 10 6 10V11C6.33329 11 6.65944 10.9673 6.97526 10.9048L6.78119 9.92385ZM6 10C5.73222 10 5.47106 9.97376 5.21881 9.92385L5.02474 10.9048C5.34056 10.9673 5.66671 11 6 11V10ZM3.77789 9.32656C3.34147 9.03438 2.96562 8.65853 2.67344 8.22211L1.84247 8.77843C2.20737 9.32347 2.67653 9.79263 3.22157 10.1575L3.77789 9.32656ZM2.07615 6.78119C2.02624 6.52894 2 6.26778 2 6H1C1 6.33329 1.03268 6.65944 1.09516 6.97526L2.07615 6.78119ZM6 0C5.59993 0 5.20852 0.0392261 4.82957 0.114193L5.02364 1.09518C5.33902 1.03279 5.66543 1 6 1V0ZM2.66595 1.01091C2.01186 1.44881 1.44881 2.01186 1.01091 2.66595L1.84187 3.22227C2.20706 2.6768 2.6768 2.20706 3.22227 1.84187L2.66595 1.01091ZM0.114193 4.82957C0.0392261 5.20852 0 5.59993 0 6H1C1 5.66543 1.03279 5.33902 1.09518 5.02364L0.114193 4.82957ZM0 6C0 6.40007 0.0392261 6.79148 0.114193 7.17043L1.09518 6.97636C1.03279 6.66098 1 6.33457 1 6H0ZM1.01091 9.33405C1.44881 9.98814 2.01186 10.5512 2.66595 10.9891L3.22227 10.1581C2.6768 9.79294 2.20706 9.3232 1.84187 8.77773L1.01091 9.33405ZM4.82957 11.8858C5.20852 11.9608 5.59993 12 6 12V11C5.66543 11 5.33902 10.9672 5.02364 10.9048L4.82957 11.8858ZM6 12C6.40007 12 6.79148 11.9608 7.17043 11.8858L6.97636 10.9048C6.66098 10.9672 6.33457 11 6 11V12ZM9.33405 10.9891C9.98814 10.5512 10.5512 9.98814 10.9891 9.33405L10.1581 8.77773C9.79294 9.3232 9.3232 9.79294 8.77773 10.1581L9.33405 10.9891ZM11.8858 7.17043C11.9608 6.79148 12 6.40007 12 6H11C11 6.33457 10.9672 6.66098 10.9048 6.97636L11.8858 7.17043ZM12 6C12 5.59993 11.9608 5.20852 11.8858 4.82957L10.9048 5.02364C10.9672 5.33902 11 5.66543 11 6H12ZM10.9891 2.66595C10.5512 2.01186 9.98814 1.44881 9.33405 1.01091L8.77773 1.84187C9.3232 2.20706 9.79294 2.6768 10.1581 3.22227L10.9891 2.66595ZM7.17043 0.114193C6.79148 0.0392261 6.40007 0 6 0V1C6.33457 1 6.66098 1.03279 6.97636 1.09518L7.17043 0.114193Z" fill="black" fill-opacity="0.8" mask="url(#path-1-inside-1)"/>
</svg>
