<svg width="24" height="24" viewBox="0 0 24 24" fill="none" xmlns="http://www.w3.org/2000/svg">
<path d="M12 15C13.6569 15 15 13.6569 15 12C15 10.3431 13.6569 9 12 9C10.3431 9 9 10.3431 9 12C9 13.6569 10.3431 15 12 15Z" stroke="white" stroke-linecap="round" stroke-linejoin="round"/>
<path d="M16.4238 18.6656C14.9387 19.6512 13.167 20.1126 11.3898 19.9767C9.61257 19.8407 7.93167 19.1152 6.61379 17.9151C5.29591 16.7151 4.41653 15.1093 4.11518 13.3526C3.81383 11.5958 4.10778 9.78876 4.95038 8.21811C5.79298 6.64746 7.13597 5.40318 8.76626 4.6827C10.3965 3.96223 12.2208 3.80682 13.9494 4.24115C15.6781 4.67548 17.2122 5.67466 18.3083 7.08015C19.4045 8.48564 19.9999 10.2169 20 11.9993C20 13.8401 19.3334 15.3324 17.6669 15.3324C16.0003 15.3324 15.3337 13.8401 15.3337 11.9993V8.66627" stroke="white" stroke-linecap="round" stroke-linejoin="round"/>
</svg>
