<svg width="24" height="24" viewBox="0 0 24 24" fill="none" xmlns="http://www.w3.org/2000/svg">
<path d="M15.1837 8.12395C15.0185 7.95868 14.7508 7.95868 14.5855 8.12395L6.12395 16.5855C5.95868 16.7508 5.95868 17.0185 6.12395 17.1837L7.81626 18.8761C7.89889 18.9587 8.00714 19 8.1154 19C8.22366 19 8.33189 18.9587 8.41454 18.8761L16.876 10.4145C17.0413 10.2492 17.0413 9.98154 16.876 9.81627L15.1837 8.12395ZM8.11538 17.9787L7.02134 16.8846L12.7692 11.1367L13.8633 12.2308C13.8633 12.2308 8.11538 17.9787 8.11538 17.9787ZM14.4615 11.6325L13.3675 10.5385L14.8846 9.02134L15.9787 10.1154L14.4615 11.6325Z" fill="black" fill-opacity="0.8"/>
<path d="M18.1036 11.4971L18.0392 11.8286H18.1401C18.173 11.8286 18.2002 11.8387 18.2217 11.859C18.2446 11.8781 18.256 11.9022 18.256 11.9314C18.256 11.9594 18.2446 11.9822 18.2217 12C18.2002 12.0178 18.173 12.0267 18.1401 12.0267H18.0005L17.9576 12.2514C17.9533 12.2756 17.9411 12.2952 17.9211 12.3105C17.9025 12.3257 17.8789 12.3333 17.8502 12.3333C17.8159 12.3333 17.788 12.3238 17.7665 12.3048C17.7465 12.2857 17.7364 12.261 17.7364 12.2305C17.7364 12.219 17.7372 12.2108 17.7386 12.2057L17.7729 12.0267H17.4208L17.3779 12.2514C17.3736 12.2768 17.3614 12.2971 17.3414 12.3124C17.3213 12.3263 17.297 12.3333 17.2684 12.3333C17.2355 12.3333 17.2083 12.3238 17.1868 12.3048C17.1668 12.2844 17.1567 12.259 17.1567 12.2286C17.1567 12.2184 17.1575 12.2108 17.1589 12.2057L17.1932 12.0267H17.1159C17.083 12.0267 17.0551 12.0171 17.0322 11.9981C17.0107 11.9778 17 11.953 17 11.9238C17 11.8959 17.0107 11.873 17.0322 11.8552C17.0551 11.8375 17.083 11.8286 17.1159 11.8286H17.2319L17.2963 11.4971H17.1954C17.1625 11.4971 17.1346 11.4876 17.1116 11.4686C17.0902 11.4483 17.0794 11.4235 17.0794 11.3943C17.0794 11.3663 17.0902 11.3435 17.1116 11.3257C17.1346 11.3079 17.1625 11.299 17.1954 11.299H17.3328L17.3757 11.0819C17.38 11.0578 17.3915 11.0381 17.4101 11.0229C17.4301 11.0076 17.4545 11 17.4831 11C17.5174 11 17.5446 11.0095 17.5647 11.0286C17.5862 11.0476 17.5969 11.0724 17.5969 11.1029C17.5969 11.1143 17.5962 11.1225 17.5947 11.1276L17.5625 11.299H17.9125L17.9554 11.0819C17.9597 11.0565 17.9719 11.0368 17.9919 11.0229C18.012 11.0076 18.0363 11 18.0649 11C18.0979 11 18.1244 11.0102 18.1444 11.0305C18.1659 11.0495 18.1766 11.0743 18.1766 11.1048C18.1766 11.1149 18.1759 11.1225 18.1744 11.1276L18.1422 11.299H18.2174C18.2503 11.299 18.2775 11.3092 18.299 11.3295C18.3219 11.3486 18.3333 11.3727 18.3333 11.4019C18.3333 11.4298 18.3219 11.4527 18.299 11.4705C18.2775 11.4883 18.2503 11.4971 18.2174 11.4971H18.1036ZM17.876 11.4971H17.5239L17.4595 11.8286H17.8116L17.876 11.4971Z" fill="black" fill-opacity="0.8"/>
<path d="M17.6554 6.74571L17.5588 7.24286H17.7101C17.7595 7.24286 17.8003 7.2581 17.8325 7.28857C17.8669 7.31714 17.8841 7.35333 17.8841 7.39714C17.8841 7.43905 17.8669 7.47333 17.8325 7.5C17.8003 7.52667 17.7595 7.54 17.7101 7.54H17.5008L17.4364 7.87714C17.43 7.91333 17.4117 7.94286 17.3816 7.96571C17.3537 7.98857 17.3183 8 17.2754 8C17.2238 8 17.182 7.98571 17.1498 7.95714C17.1197 7.92857 17.1047 7.89143 17.1047 7.84571C17.1047 7.82857 17.1057 7.81619 17.1079 7.80857L17.1594 7.54H16.6312L16.5668 7.87714C16.5604 7.91524 16.5421 7.94571 16.5121 7.96857C16.482 7.98952 16.4455 8 16.4026 8C16.3532 8 16.3124 7.98571 16.2802 7.95714C16.2501 7.92667 16.2351 7.88857 16.2351 7.84286C16.2351 7.82762 16.2362 7.81619 16.2383 7.80857L16.2899 7.54H16.1739C16.1245 7.54 16.0827 7.52571 16.0483 7.49714C16.0161 7.46667 16 7.42952 16 7.38571C16 7.34381 16.0161 7.30952 16.0483 7.28286C16.0827 7.25619 16.1245 7.24286 16.1739 7.24286H16.3478L16.4444 6.74571H16.2931C16.2437 6.74571 16.2018 6.73143 16.1675 6.70286C16.1353 6.67238 16.1192 6.63524 16.1192 6.59143C16.1192 6.54952 16.1353 6.51524 16.1675 6.48857C16.2018 6.4619 16.2437 6.44857 16.2931 6.44857H16.4992L16.5636 6.12286C16.57 6.08667 16.5872 6.05714 16.6151 6.03429C16.6452 6.01143 16.6817 6 16.7246 6C16.7762 6 16.817 6.01429 16.847 6.04286C16.8792 6.07143 16.8953 6.10857 16.8953 6.15429C16.8953 6.17143 16.8943 6.18381 16.8921 6.19143L16.8438 6.44857H17.3688L17.4332 6.12286C17.4396 6.08476 17.4579 6.05524 17.4879 6.03429C17.518 6.01143 17.5545 6 17.5974 6C17.6468 6 17.6865 6.01524 17.7166 6.04571C17.7488 6.07429 17.7649 6.11143 17.7649 6.15714C17.7649 6.17238 17.7638 6.18381 17.7617 6.19143L17.7134 6.44857H17.8261C17.8755 6.44857 17.9163 6.46381 17.9485 6.49429C17.9828 6.52286 18 6.55905 18 6.60286C18 6.64476 17.9828 6.67905 17.9485 6.70571C17.9163 6.73238 17.8755 6.74571 17.8261 6.74571H17.6554ZM17.314 6.74571H16.7858L16.6892 7.24286H17.2174L17.314 6.74571Z" fill="black" fill-opacity="0.8"/>
<path d="M12.4831 7.11857L12.3382 7.86429H12.5652C12.6393 7.86429 12.7005 7.88714 12.7488 7.93286C12.8003 7.97571 12.8261 8.03 12.8261 8.09571C12.8261 8.15857 12.8003 8.21 12.7488 8.25C12.7005 8.29 12.6393 8.31 12.5652 8.31H12.2512L12.1546 8.81571C12.1449 8.87 12.1176 8.91429 12.0725 8.94857C12.0306 8.98286 11.9775 9 11.913 9C11.8357 9 11.7729 8.97857 11.7246 8.93571C11.6795 8.89286 11.657 8.83714 11.657 8.76857C11.657 8.74286 11.6586 8.72429 11.6618 8.71286L11.7391 8.31H10.9469L10.8502 8.81571C10.8406 8.87286 10.8132 8.91857 10.7681 8.95286C10.723 8.98429 10.6683 9 10.6039 9C10.5298 9 10.4686 8.97857 10.4203 8.93571C10.3752 8.89 10.3527 8.83286 10.3527 8.76429C10.3527 8.74143 10.3543 8.72429 10.3575 8.71286L10.4348 8.31H10.2609C10.1868 8.31 10.124 8.28857 10.0725 8.24571C10.0242 8.2 10 8.14429 10 8.07857C10 8.01571 10.0242 7.96429 10.0725 7.92429C10.124 7.88429 10.1868 7.86429 10.2609 7.86429H10.5217L10.6667 7.11857H10.4396C10.3655 7.11857 10.3027 7.09714 10.2512 7.05429C10.2029 7.00857 10.1787 6.95286 10.1787 6.88714C10.1787 6.82429 10.2029 6.77286 10.2512 6.73286C10.3027 6.69286 10.3655 6.67286 10.4396 6.67286H10.7488L10.8454 6.18429C10.8551 6.13 10.8808 6.08571 10.9227 6.05143C10.9678 6.01714 11.0225 6 11.087 6C11.1643 6 11.2254 6.02143 11.2705 6.06429C11.3188 6.10714 11.343 6.16286 11.343 6.23143C11.343 6.25714 11.3414 6.27571 11.3382 6.28714L11.2657 6.67286H12.0531L12.1498 6.18429C12.1594 6.12714 12.1868 6.08286 12.2319 6.05143C12.277 6.01714 12.3317 6 12.3961 6C12.4702 6 12.5298 6.02286 12.5749 6.06857C12.6232 6.11143 12.6473 6.16714 12.6473 6.23571C12.6473 6.25857 12.6457 6.27571 12.6425 6.28714L12.57 6.67286H12.7391C12.8132 6.67286 12.8744 6.69571 12.9227 6.74143C12.9742 6.78429 13 6.83857 13 6.90429C13 6.96714 12.9742 7.01857 12.9227 7.05857C12.8744 7.09857 12.8132 7.11857 12.7391 7.11857H12.4831ZM11.971 7.11857H11.1787L11.0338 7.86429H11.8261L11.971 7.11857Z" fill="black" fill-opacity="0.8"/>
</svg>
