<svg width="19" height="18" viewBox="0 0 19 18" fill="none" xmlns="http://www.w3.org/2000/svg">
<path d="M5.84375 7.875C7.24172 7.875 8.375 6.74172 8.375 5.34375C8.375 3.94578 7.24172 2.8125 5.84375 2.8125C4.44578 2.8125 3.3125 3.94578 3.3125 5.34375C3.3125 6.74172 4.44578 7.875 5.84375 7.875Z" stroke="black" stroke-linecap="round" stroke-linejoin="round"/>
<path d="M13.1562 7.875C14.5542 7.875 15.6875 6.74172 15.6875 5.34375C15.6875 3.94578 14.5542 2.8125 13.1562 2.8125C11.7583 2.8125 10.625 3.94578 10.625 5.34375C10.625 6.74172 11.7583 7.875 13.1562 7.875Z" stroke="black" stroke-linecap="round" stroke-linejoin="round"/>
<path d="M5.84375 15.1875C7.24172 15.1875 8.375 14.0542 8.375 12.6562C8.375 11.2583 7.24172 10.125 5.84375 10.125C4.44578 10.125 3.3125 11.2583 3.3125 12.6562C3.3125 14.0542 4.44578 15.1875 5.84375 15.1875Z" stroke="black" stroke-linecap="round" stroke-linejoin="round"/>
<path d="M13.1562 10.6875V14.625" stroke="black" stroke-linecap="round" stroke-linejoin="round"/>
<path d="M15.125 12.6562H11.1875" stroke="black" stroke-linecap="round" stroke-linejoin="round"/>
</svg>
