<svg width="26" height="24" viewBox="0 0 26 24" fill="none" xmlns="http://www.w3.org/2000/svg">
<path d="M13.3203 20.2493H5.35319C5.1611 20.2493 4.97687 20.1735 4.84104 20.0388C4.70521 19.904 4.62891 19.7211 4.62891 19.5305V11.6242C4.62891 10.4916 4.85372 9.37004 5.2905 8.32361C5.72728 7.27718 6.36748 6.32637 7.17455 5.52547C7.98162 4.72456 8.93975 4.08925 9.99424 3.6558C11.0487 3.22236 12.1789 2.99927 13.3203 2.99927H13.3203C14.4617 2.99927 15.5919 3.22236 16.6464 3.65581C17.7008 4.08925 18.659 4.72457 19.466 5.52547C20.2731 6.32638 20.9133 7.27719 21.3501 8.32362C21.7869 9.37006 22.0117 10.4916 22.0117 11.6243V11.6243C22.0117 13.9118 21.096 16.1056 19.4661 17.7231C17.8361 19.3406 15.6254 20.2493 13.3203 20.2493Z" stroke="black" stroke-linecap="round" stroke-linejoin="round"/>
<path d="M10.2974 10.4993H15.9657" stroke="black" stroke-linecap="round" stroke-linejoin="round"/>
<path d="M10.2974 13.4993H15.9657" stroke="black" stroke-linecap="round" stroke-linejoin="round"/>
</svg>
