<svg width="24" height="24" viewBox="0 0 24 24" fill="none" xmlns="http://www.w3.org/2000/svg">
<path d="M4.00782 9.09506V17.7529C4.00782 19.392 5.25686 19.9339 5.88139 20H17.725C19.4915 20 19.9777 18.5019 20 17.7529V9.16115C20 8.31519 19.3755 7.75122 19.0632 7.57497L12.7734 4.20436C12.024 3.83425 11.3459 4.05014 11.1006 4.20436L4.9446 7.64106C4.08812 8.22266 3.96321 8.85273 4.00782 9.09506Z" stroke="white" stroke-opacity="0.5"/>
<path d="M12.1448 15.834C10.753 15.834 10.2266 14.6885 10.1374 14.1157C10.1374 13.6927 9.78056 13.631 9.60212 13.653C9.17388 13.653 9.02221 13.9615 8.99991 14.1157C8.99991 16.4949 11.0965 17.0457 12.1448 17.0237C14.8749 17.0237 15.4682 15.085 15.4235 14.1157C15.4235 13.7456 15.0667 13.653 14.8882 13.653C14.46 13.653 14.3529 13.9615 14.3529 14.1157C14.3529 15.5432 12.8809 15.8561 12.1448 15.834Z" fill="white" fill-opacity="0.5"/>
</svg>
