<svg width="24" height="24" viewBox="0 0 24 24" fill="none" xmlns="http://www.w3.org/2000/svg">
<path d="M11.6564 7.53061L13.1881 5.99843C13.5041 5.682 13.8794 5.43096 14.2924 5.25965C14.7055 5.08833 15.1482 5.0001 15.5953 5C16.0425 4.9999 16.4852 5.08792 16.8984 5.25904C17.3115 5.43016 17.6869 5.68103 18.003 5.99731C18.3192 6.31359 18.57 6.68908 18.741 7.10234C18.9121 7.5156 19.0001 7.95853 19 8.40582C18.9999 8.8531 18.9117 9.29599 18.7404 9.70917C18.5692 10.1223 18.3182 10.4977 18.0019 10.8139L15.8138 13.0027C15.4977 13.3189 15.1225 13.5697 14.7095 13.7408C14.2965 13.9119 13.8539 14 13.4069 14C12.9599 14 12.5173 13.9119 12.1043 13.7408C11.6913 13.5697 11.3161 13.3189 11 13.0027" stroke="black" stroke-linecap="round" stroke-linejoin="round"/>
<path d="M12.3436 16.4694L10.8119 18.0016C10.4959 18.318 10.1206 18.569 9.70758 18.7404C9.29454 18.9117 8.85181 18.9999 8.40467 19C7.95753 19.0001 7.51476 18.9121 7.10164 18.741C6.68852 18.5698 6.31315 18.319 5.99697 18.0027C5.6808 17.6864 5.43002 17.3109 5.25895 16.8977C5.08789 16.4844 4.9999 16.0415 5 15.5942C5.0001 15.1469 5.0883 14.704 5.25956 14.2908C5.43082 13.8777 5.68177 13.5023 5.99809 13.1861L8.18619 10.9973C8.50227 10.6811 8.87751 10.4303 9.29049 10.2592C9.70346 10.0881 10.1461 10 10.5931 10C11.0401 10 11.4827 10.0881 11.8957 10.2592C12.3087 10.4303 12.6839 10.6811 13 10.9973" stroke="black" stroke-linecap="round" stroke-linejoin="round"/>
</svg>
