<svg width="15" height="15" viewBox="0 0 15 15" fill="none" xmlns="http://www.w3.org/2000/svg">
<path d="M11.4773 5.625H3.52273C3.30307 5.625 3.125 5.79989 3.125 6.01562V11.4844C3.125 11.7001 3.30307 11.875 3.52273 11.875H11.4773C11.6969 11.875 11.875 11.7001 11.875 11.4844V6.01562C11.875 5.79989 11.6969 5.625 11.4773 5.625Z" stroke="black" stroke-opacity="0.5" stroke-linecap="round" stroke-linejoin="round"/>
<path d="M5.625 5.625V3.75C5.625 3.25272 5.82254 2.77581 6.17417 2.42417C6.52581 2.07254 7.00272 1.875 7.5 1.875C7.99728 1.875 8.47419 2.07254 8.82582 2.42417C9.17746 2.77581 9.375 3.25272 9.375 3.75V5.625" stroke="black" stroke-opacity="0.5" stroke-linecap="round" stroke-linejoin="round"/>
</svg>
