<svg width="1440" height="418" viewBox="0 0 1440 418" fill="none" xmlns="http://www.w3.org/2000/svg">
<g filter="url(#filter0_d)">
<line x1="1447.21" y1="27.8853" x2="1156.21" y2="425.885" stroke="url(#paint0_linear)" stroke-width="3"/>
<line x1="1421.17" y1="46.9412" x2="1118.17" y2="422.941" stroke="url(#paint1_linear)" stroke-width="3"/>
<line x1="1397.12" y1="62.9985" x2="1075.12" y2="423.999" stroke="url(#paint2_linear)" stroke-width="3"/>
<line x1="1375.08" y1="74.0452" x2="1035.08" y2="424.045" stroke="url(#paint3_linear)" stroke-width="3"/>
<line x1="1344.02" y1="94.097" x2="984.922" y2="428.989" stroke="url(#paint4_linear)" stroke-width="3"/>
<line x1="1309.97" y1="113.144" x2="939.162" y2="427.371" stroke="url(#paint5_linear)" stroke-width="3"/>
<line x1="1285.9" y1="126.196" x2="889.905" y2="425.703" stroke="url(#paint6_linear)" stroke-width="3"/>
<line x1="1248.85" y1="146.237" x2="843.848" y2="423.744" stroke="url(#paint7_linear)" stroke-width="3"/>
<line x1="1219.77" y1="160.285" x2="782.775" y2="423.791" stroke="url(#paint8_linear)" stroke-width="3"/>
<line x1="1168.72" y1="182.318" x2="722.715" y2="424.318" stroke="url(#paint9_linear)" stroke-width="3"/>
<line x1="1124.65" y1="198.351" x2="655.651" y2="424.351" stroke="url(#paint10_linear)" stroke-width="3"/>
<line x1="1073.58" y1="214.383" x2="574.582" y2="424.383" stroke="url(#paint11_linear)" stroke-width="3"/>
<line x1="1018.51" y1="230.41" x2="484.512" y2="424.41" stroke="url(#paint12_linear)" stroke-width="3"/>
<line x1="969.441" y1="241.434" x2="374.441" y2="424.434" stroke="url(#paint13_linear)" stroke-width="3"/>
<line x1="922.37" y1="249.454" x2="234.37" y2="424.454" stroke="url(#paint14_linear)" stroke-width="3"/>
<line x1="873.303" y1="255.469" x2="58.3028" y2="423.469" stroke="url(#paint15_linear)" stroke-width="3"/>
<line x1="814.238" y1="259.481" x2="-12.7619" y2="392.481" stroke="url(#paint16_linear)" stroke-width="3"/>
<line x1="743.18" y1="262.489" x2="-16.8198" y2="354.489" stroke="url(#paint17_linear)" stroke-width="3"/>
<line x1="720.112" y1="261.496" x2="-12.8878" y2="316.496" stroke="url(#paint18_linear)" stroke-width="3"/>
<line x1="673.048" y1="261.499" x2="-12.9519" y2="283.499" stroke="url(#paint19_linear)" stroke-width="3"/>
<line x1="615.995" y1="258.5" x2="-13.0048" y2="256.5" stroke="url(#paint20_linear)" stroke-width="3"/>
<line x1="569.938" y1="253.499" x2="-13.0617" y2="229.499" stroke="url(#paint21_linear)" stroke-width="3"/>
<line x1="472.889" y1="244.496" x2="-13.1108" y2="208.496" stroke="url(#paint22_linear)" stroke-width="3"/>
<line x1="398.837" y1="232.491" x2="-13.1629" y2="187.491" stroke="url(#paint23_linear)" stroke-width="3"/>
<line x1="350.788" y1="222.485" x2="-14.2116" y2="170.485" stroke="url(#paint24_linear)" stroke-width="3"/>
<line x1="244.765" y1="198.482" x2="-14.2345" y2="157.481" stroke="url(#paint25_linear)" stroke-width="3"/>
<line x1="172.739" y1="178.477" x2="-14.2607" y2="145.477" stroke="url(#paint26_linear)" stroke-width="3"/>
<line x1="93.6979" y1="155.469" x2="-13.3021" y2="133.469" stroke="url(#paint27_linear)" stroke-width="3"/>
</g>
<path d="M-2.30566 151.669L540.38 428.5" stroke="#3A79BE" stroke-width="3"/>
<path d="M-2.34888 142.647L587.619 425.841" stroke="#3A79BE" stroke-width="3"/>
<line y1="-1.5" x2="695.949" y2="-1.5" transform="matrix(0.908746 0.41735 -0.420222 0.907421 -3 136)" stroke="#3A79BE" stroke-width="3"/>
<line y1="-1.5" x2="739.081" y2="-1.5" transform="matrix(0.914992 0.403472 -0.406287 0.913746 -3 129)" stroke="#3A79BE" stroke-width="3"/>
<line y1="-1.5" x2="782.927" y2="-1.5" transform="matrix(0.921634 0.388059 -0.390806 0.920473 -3 123)" stroke="#3A79BE" stroke-width="3"/>
<line y1="-1.5" x2="831.612" y2="-1.5" transform="matrix(0.928174 0.372146 -0.374818 0.927098 -3 119)" stroke="#3A79BE" stroke-width="3"/>
<line y1="-1.5" x2="780.811" y2="-1.5" transform="matrix(0.936728 0.350058 -0.352192 0.935928 89.3193 154)" stroke="#3A79BE" stroke-width="3"/>
<line y1="-1.5" x2="685.61" y2="-1.5" transform="matrix(0.942406 0.334471 -0.336535 0.941671 227.799 198)" stroke="#3A79BE" stroke-width="3"/>
<line y1="-1.5" x2="681.379" y2="-1.5" transform="matrix(0.948424 0.317004 -0.318986 0.947759 287.003 212)" stroke="#3A79BE" stroke-width="3"/>
<line y1="-1.5" x2="680.606" y2="-1.5" transform="matrix(0.955138 0.29616 -0.298037 0.954554 354.236 227)" stroke="#3A79BE" stroke-width="3"/>
<line y1="-1.5" x2="696.035" y2="-1.5" transform="matrix(0.961612 0.274411 -0.276175 0.961107 396.382 234)" stroke="#3A79BE" stroke-width="3"/>
<line y1="-1.5" x2="727.569" y2="-1.5" transform="matrix(0.968207 0.250148 -0.251778 0.967785 455.587 243)" stroke="#3A79BE" stroke-width="3"/>
<line y1="-1.5" x2="766.365" y2="-1.5" transform="matrix(0.974187 0.225741 -0.22723 0.973841 512.785 251)" stroke="#3A79BE" stroke-width="3"/>
<line y1="-1.5" x2="851.822" y2="-1.5" transform="matrix(0.980121 0.198398 -0.199723 0.979852 559.948 256)" stroke="#3A79BE" stroke-width="3"/>
<line y1="-1.5" x2="849.536" y2="-1.5" transform="matrix(0.985122 0.171858 -0.173018 0.984919 605.104 259)" stroke="#3A79BE" stroke-width="3"/>
<line y1="-1.5" x2="806.578" y2="-1.5" transform="matrix(0.990312 0.138858 -0.139805 0.990179 643.236 262)" stroke="#3A79BE" stroke-width="3"/>
<line y1="-1.5" x2="744.979" y2="-1.5" transform="matrix(0.994071 0.108728 -0.109475 0.99399 701.438 264)" stroke="#3A79BE" stroke-width="3"/>
<line y1="-1.5" x2="681.573" y2="-1.5" transform="matrix(0.996739 0.0806955 -0.0812531 0.996693 762.649 263)" stroke="#3A79BE" stroke-width="3"/>
<line y1="-1.5" x2="645.84" y2="-1.5" transform="matrix(0.99906 0.0433544 -0.0436554 0.999047 796.767 262)" stroke="#3A79BE" stroke-width="3"/>
<line y1="-1.5" x2="596.093" y2="-1.5" transform="matrix(0.999949 0.0100656 -0.0101356 0.999949 845.938 259)" stroke="#3A79BE" stroke-width="3"/>
<line y1="-1.5" x2="534.058" y2="-1.5" transform="matrix(0.999605 -0.0280868 0.028282 0.9996 908.153 253)" stroke="#3A79BE" stroke-width="3"/>
<line y1="-1.5" x2="482.796" y2="-1.5" transform="matrix(0.997661 -0.0683518 0.0688251 0.997629 960.333 245)" stroke="#3A79BE" stroke-width="3"/>
<line y1="-1.5" x2="435.934" y2="-1.5" transform="matrix(0.994417 -0.105521 0.106246 0.99434 1008.5 235)" stroke="#3A79BE" stroke-width="3"/>
<line y1="-1.5" x2="390.816" y2="-1.5" transform="matrix(0.988539 -0.150966 0.151992 0.988382 1055.66 225)" stroke="#3A79BE" stroke-width="3"/>
<line y1="-1.5" x2="343.002" y2="-1.5" transform="matrix(0.982988 -0.183672 0.184906 0.982756 1104.83 209)" stroke="#3A79BE" stroke-width="3"/>
<line y1="-1.5" x2="302.005" y2="-1.5" transform="matrix(0.97355 -0.228473 0.229978 0.973196 1147.98 195)" stroke="#3A79BE" stroke-width="3"/>
<line y1="-1.5" x2="256.862" y2="-1.5" transform="matrix(0.961039 -0.276413 0.278188 0.960527 1195.15 177)" stroke="#3A79BE" stroke-width="3"/>
<line y1="-1.5" x2="224.271" y2="-1.5" transform="matrix(0.948566 -0.316581 0.31856 0.947903 1229.26 160)" stroke="#3A79BE" stroke-width="3"/>
<line y1="-1.5" x2="183.276" y2="-1.5" transform="matrix(0.930784 -0.365569 0.367769 0.929917 1268.4 141)" stroke="#3A79BE" stroke-width="3"/>
<line y1="-1.5" x2="138.141" y2="-1.5" transform="matrix(0.90075 -0.434338 0.436784 0.899566 1314.56 115)" stroke="#3A79BE" stroke-width="3"/>
<g filter="url(#filter1_dd)">
<path d="M-14.1548 110.003C-14.1548 110.003 277 258.498 715.5 265C1154 271.502 1449.5 25 1449.5 25" stroke="url(#paint28_linear)" stroke-width="10"/>
</g>
<defs>
<filter id="filter0_d" x="-32" y="16" width="1495.42" height="433.086" filterUnits="userSpaceOnUse" color-interpolation-filters="sRGB">
<feFlood flood-opacity="0" result="BackgroundImageFix"/>
<feColorMatrix in="SourceAlpha" type="matrix" values="0 0 0 0 0 0 0 0 0 0 0 0 0 0 0 0 0 0 127 0"/>
<feOffset dy="4"/>
<feGaussianBlur stdDeviation="7.5"/>
<feColorMatrix type="matrix" values="0 0 0 0 0.207843 0 0 0 0 0.635294 0 0 0 0 0.945098 0 0 0 0.5 0"/>
<feBlend mode="normal" in2="BackgroundImageFix" result="effect1_dropShadow"/>
<feBlend mode="normal" in="SourceGraphic" in2="effect1_dropShadow" result="shape"/>
</filter>
<filter id="filter1_dd" x="-37.8354" y="0.924316" width="1518.84" height="318.901" filterUnits="userSpaceOnUse" color-interpolation-filters="sRGB">
<feFlood flood-opacity="0" result="BackgroundImageFix"/>
<feColorMatrix in="SourceAlpha" type="matrix" values="0 0 0 0 0 0 0 0 0 0 0 0 0 0 0 0 0 0 127 0"/>
<feOffset/>
<feGaussianBlur stdDeviation="10"/>
<feColorMatrix type="matrix" values="0 0 0 0 0.207843 0 0 0 0 0.635294 0 0 0 0 0.945098 0 0 0 1 0"/>
<feBlend mode="normal" in2="BackgroundImageFix" result="effect1_dropShadow"/>
<feColorMatrix in="SourceAlpha" type="matrix" values="0 0 0 0 0 0 0 0 0 0 0 0 0 0 0 0 0 0 127 0"/>
<feOffset dy="4"/>
<feGaussianBlur stdDeviation="2"/>
<feColorMatrix type="matrix" values="0 0 0 0 0 0 0 0 0 0 0 0 0 0 0 0 0 0 0.25 0"/>
<feBlend mode="normal" in2="effect1_dropShadow" result="effect2_dropShadow"/>
<feBlend mode="normal" in="SourceGraphic" in2="effect2_dropShadow" result="shape"/>
</filter>
<linearGradient id="paint0_linear" x1="1300.5" y1="226" x2="1299.69" y2="225.41" gradientUnits="userSpaceOnUse">
<stop stop-color="#1F408F"/>
<stop offset="1" stop-color="#223699"/>
</linearGradient>
<linearGradient id="paint1_linear" x1="1268.5" y1="234" x2="1267.72" y2="233.373" gradientUnits="userSpaceOnUse">
<stop stop-color="#1F408F"/>
<stop offset="1" stop-color="#223699"/>
</linearGradient>
<linearGradient id="paint2_linear" x1="1235" y1="242.5" x2="1234.25" y2="241.834" gradientUnits="userSpaceOnUse">
<stop stop-color="#1F408F"/>
<stop offset="1" stop-color="#223699"/>
</linearGradient>
<linearGradient id="paint3_linear" x1="1204" y1="248" x2="1203.28" y2="247.303" gradientUnits="userSpaceOnUse">
<stop stop-color="#1F408F"/>
<stop offset="1" stop-color="#223699"/>
</linearGradient>
<linearGradient id="paint4_linear" x1="1163.45" y1="260.446" x2="1162.77" y2="259.715" gradientUnits="userSpaceOnUse">
<stop stop-color="#1F408F"/>
<stop offset="1" stop-color="#223699"/>
</linearGradient>
<linearGradient id="paint5_linear" x1="1123.6" y1="269.113" x2="1122.95" y2="268.351" gradientUnits="userSpaceOnUse">
<stop stop-color="#1F408F"/>
<stop offset="1" stop-color="#223699"/>
</linearGradient>
<linearGradient id="paint6_linear" x1="1087" y1="274.753" x2="1086.4" y2="273.956" gradientUnits="userSpaceOnUse">
<stop stop-color="#1F408F"/>
<stop offset="1" stop-color="#223699"/>
</linearGradient>
<linearGradient id="paint7_linear" x1="1045.5" y1="283.753" x2="1044.93" y2="282.928" gradientUnits="userSpaceOnUse">
<stop stop-color="#1F408F"/>
<stop offset="1" stop-color="#223699"/>
</linearGradient>
<linearGradient id="paint8_linear" x1="1000.5" y1="290.753" x2="999.984" y2="289.897" gradientUnits="userSpaceOnUse">
<stop stop-color="#1F408F"/>
<stop offset="1" stop-color="#223699"/>
</linearGradient>
<linearGradient id="paint9_linear" x1="945" y1="302" x2="944.523" y2="301.121" gradientUnits="userSpaceOnUse">
<stop stop-color="#1F408F"/>
<stop offset="1" stop-color="#223699"/>
</linearGradient>
<linearGradient id="paint10_linear" x1="889.5" y1="310" x2="889.066" y2="309.099" gradientUnits="userSpaceOnUse">
<stop stop-color="#1F408F"/>
<stop offset="1" stop-color="#223699"/>
</linearGradient>
<linearGradient id="paint11_linear" x1="823.5" y1="318" x2="823.112" y2="317.078" gradientUnits="userSpaceOnUse">
<stop stop-color="#1F408F"/>
<stop offset="1" stop-color="#223699"/>
</linearGradient>
<linearGradient id="paint12_linear" x1="751" y1="326" x2="750.659" y2="325.06" gradientUnits="userSpaceOnUse">
<stop stop-color="#1F408F"/>
<stop offset="1" stop-color="#223699"/>
</linearGradient>
<linearGradient id="paint13_linear" x1="671.5" y1="331.5" x2="671.206" y2="330.544" gradientUnits="userSpaceOnUse">
<stop stop-color="#1F408F"/>
<stop offset="1" stop-color="#223699"/>
</linearGradient>
<linearGradient id="paint14_linear" x1="578" y1="335.5" x2="577.753" y2="334.531" gradientUnits="userSpaceOnUse">
<stop stop-color="#1F408F"/>
<stop offset="1" stop-color="#223699"/>
</linearGradient>
<linearGradient id="paint15_linear" x1="465.5" y1="338" x2="465.298" y2="337.021" gradientUnits="userSpaceOnUse">
<stop stop-color="#1F408F"/>
<stop offset="1" stop-color="#223699"/>
</linearGradient>
<linearGradient id="paint16_linear" x1="400.5" y1="324.5" x2="400.341" y2="323.513" gradientUnits="userSpaceOnUse">
<stop stop-color="#1F408F"/>
<stop offset="1" stop-color="#223699"/>
</linearGradient>
<linearGradient id="paint17_linear" x1="363" y1="307" x2="362.88" y2="306.007" gradientUnits="userSpaceOnUse">
<stop stop-color="#1F408F"/>
<stop offset="1" stop-color="#223699"/>
</linearGradient>
<linearGradient id="paint18_linear" x1="353.5" y1="287.5" x2="353.425" y2="286.503" gradientUnits="userSpaceOnUse">
<stop stop-color="#1F408F"/>
<stop offset="1" stop-color="#223699"/>
</linearGradient>
<linearGradient id="paint19_linear" x1="330" y1="271" x2="329.968" y2="270.001" gradientUnits="userSpaceOnUse">
<stop stop-color="#1F408F"/>
<stop offset="1" stop-color="#223699"/>
</linearGradient>
<linearGradient id="paint20_linear" x1="301.5" y1="256" x2="301.503" y2="255" gradientUnits="userSpaceOnUse">
<stop stop-color="#1F408F"/>
<stop offset="1" stop-color="#223699"/>
</linearGradient>
<linearGradient id="paint21_linear" x1="278.5" y1="240" x2="278.541" y2="239.001" gradientUnits="userSpaceOnUse">
<stop stop-color="#1F408F"/>
<stop offset="1" stop-color="#223699"/>
</linearGradient>
<linearGradient id="paint22_linear" x1="230" y1="225" x2="230.074" y2="224.003" gradientUnits="userSpaceOnUse">
<stop stop-color="#1F408F"/>
<stop offset="1" stop-color="#223699"/>
</linearGradient>
<linearGradient id="paint23_linear" x1="193" y1="208.5" x2="193.109" y2="207.506" gradientUnits="userSpaceOnUse">
<stop stop-color="#1F408F"/>
<stop offset="1" stop-color="#223699"/>
</linearGradient>
<linearGradient id="paint24_linear" x1="168.5" y1="195" x2="168.641" y2="194.01" gradientUnits="userSpaceOnUse">
<stop stop-color="#1F408F"/>
<stop offset="1" stop-color="#223699"/>
</linearGradient>
<linearGradient id="paint25_linear" x1="115.5" y1="176.5" x2="115.656" y2="175.512" gradientUnits="userSpaceOnUse">
<stop stop-color="#1F408F"/>
<stop offset="1" stop-color="#223699"/>
</linearGradient>
<linearGradient id="paint26_linear" x1="79.5" y1="160.5" x2="79.6738" y2="159.515" gradientUnits="userSpaceOnUse">
<stop stop-color="#1F408F"/>
<stop offset="1" stop-color="#223699"/>
</linearGradient>
<linearGradient id="paint27_linear" x1="40.5" y1="143" x2="40.7014" y2="142.02" gradientUnits="userSpaceOnUse">
<stop stop-color="#1F408F"/>
<stop offset="1" stop-color="#223699"/>
</linearGradient>
<linearGradient id="paint28_linear" x1="0.500008" y1="115" x2="1435" y2="36.5002" gradientUnits="userSpaceOnUse">
<stop stop-color="#4280BD"/>
<stop offset="0.479491" stop-color="#3061C2"/>
<stop offset="1" stop-color="#2246BE"/>
</linearGradient>
</defs>
</svg>
