<svg width="16" height="22" viewBox="0 0 16 22" fill="none" xmlns="http://www.w3.org/2000/svg">
<path d="M15.3518 10.9115L15.3796 13.1826C15.3053 14.618 15.138 15.8272 14.8778 16.8104C14.6176 17.7935 14.1064 18.6882 13.3443 19.4944C12.0804 20.8315 10.2402 21.5 7.82388 21.5C4.98001 21.5 3.02834 21.1067 1.96886 20.3202C0.90938 19.514 0.379639 18.0688 0.379639 15.9845V0.5H8.10269C10.3332 0.5 12.0804 1.16854 13.3443 2.50562C14.3666 3.58708 14.9707 4.90449 15.1566 6.45786C15.2867 7.55899 15.3518 9.04354 15.3518 10.9115ZM10.6399 16.5449C10.993 16.0927 11.2161 15.4733 11.309 14.6868C11.4205 13.8806 11.4763 12.632 11.4763 10.941C11.4763 9.25 11.4205 8.0309 11.309 7.28371C11.2161 6.51685 10.993 5.9073 10.6399 5.45506C9.97072 4.58989 9.00418 4.1573 7.74023 4.1573H4.2551V15.7781C4.2551 16.5646 4.50604 17.1053 5.0079 17.4003C5.50975 17.6952 6.40194 17.8427 7.68447 17.8427C8.98559 17.8427 9.97072 17.4101 10.6399 16.5449Z" fill="white" fill-opacity="0.5"/>
</svg>
