<svg width="244" height="53" viewBox="0 0 244 53" fill="none" xmlns="http://www.w3.org/2000/svg">
<path d="M41.0923 0V46.547C41.0923 48.147 40.6074 49.5289 39.6377 50.6926C38.6679 51.8077 37.5285 52.3653 36.2194 52.3653C32.8738 52.3653 30.1343 50.4259 28.0009 46.547L10.1094 18.5461V51.7835H0V0H9.74577L30.9828 33.892V0H41.0923Z" fill="white"/>
<path d="M73.3274 33.0193V29.2373C73.3274 25.6493 72.794 22.9098 71.7273 21.0189C70.7091 19.1279 68.5515 18.1824 65.2544 18.1824C59.9209 18.1824 57.2541 21.7704 57.2541 28.9464V32.7283C57.2541 40.4377 59.9209 44.2923 65.2544 44.2923C68.6969 44.2923 70.9516 43.0075 72.0183 40.4377C72.891 38.4012 73.3274 35.9284 73.3274 33.0193ZM82.7822 30.8374C82.7822 39.8074 81.0852 45.8197 77.6912 48.8743C74.8305 51.4926 70.6849 52.8017 65.2544 52.8017C58.3208 52.8017 53.6419 50.7653 51.2176 46.6924C48.9387 42.959 47.7993 37.674 47.7993 30.8374C47.7993 24.4372 48.9387 19.4188 51.2176 15.7823C53.7389 11.7095 58.3208 9.67304 64.9635 9.67304C71.6546 9.67304 76.2851 11.467 78.8548 15.055C81.4731 18.5945 82.7822 23.8553 82.7822 30.8374Z" fill="white"/>
<path d="M130.127 25.6736L130.2 31.2737C130.006 34.8133 129.569 37.7952 128.891 40.2195C128.212 42.6438 126.878 44.8499 124.89 46.8379C121.593 50.135 116.793 51.7835 110.49 51.7835C103.072 51.7835 97.9805 50.8138 95.2167 48.8743C92.453 46.8864 91.0711 43.3226 91.0711 38.1831V0H111.217C117.036 0 121.593 1.64854 124.89 4.94561C127.557 7.61237 129.133 10.861 129.618 14.6914C129.957 17.4066 130.127 21.0673 130.127 25.6736ZM117.836 39.5649C118.757 38.4497 119.339 36.9224 119.581 34.983C119.872 32.995 120.018 29.9161 120.018 25.7463C120.018 21.5765 119.872 18.5703 119.581 16.7278C119.339 14.8368 118.757 13.3338 117.836 12.2186C116.09 10.0852 113.569 9.01848 110.272 9.01848H101.181V37.674C101.181 39.6134 101.835 40.9468 103.144 41.6741C104.453 42.4014 106.781 42.765 110.126 42.765C113.52 42.765 116.09 41.6983 117.836 39.5649Z" fill="white"/>
<path d="M160.759 33.0193V29.2373C160.759 25.6493 160.226 22.9098 159.159 21.0189C158.141 19.1279 155.983 18.1824 152.686 18.1824C147.353 18.1824 144.686 21.7704 144.686 28.9464V32.7283C144.686 40.4377 147.353 44.2923 152.686 44.2923C156.129 44.2923 158.383 43.0075 159.45 40.4377C160.323 38.4012 160.759 35.9284 160.759 33.0193ZM170.214 30.8374C170.214 39.8074 168.517 45.8197 165.123 48.8743C162.262 51.4926 158.117 52.8017 152.686 52.8017C145.753 52.8017 141.074 50.7653 138.649 46.6924C136.371 42.959 135.231 37.674 135.231 30.8374C135.231 24.4372 136.371 19.4188 138.649 15.7823C141.171 11.7095 145.753 9.67304 152.395 9.67304C159.086 9.67304 163.717 11.467 166.287 15.055C168.905 18.5945 170.214 23.8553 170.214 30.8374Z" fill="white"/>
<path d="M199.013 36.583L207.595 36.5103C207.546 36.8982 207.498 37.6012 207.449 38.6194C207.401 39.6377 207.352 40.3407 207.304 40.7286C207.304 41.068 207.255 41.6256 207.158 42.4014C207.061 43.1772 206.94 43.759 206.795 44.1469C206.698 44.4863 206.552 44.9469 206.358 45.5288C205.486 48.05 203.11 50.038 199.231 51.4926C196.758 52.3653 194.164 52.8017 191.449 52.8017C188.782 52.8017 186.358 52.3653 184.176 51.4926C181.994 50.6198 180.273 49.5046 179.012 48.147C176.151 45.1409 174.721 39.5164 174.721 31.2737C174.721 22.9826 176.151 17.3339 179.012 14.3277C180.273 12.9701 181.994 11.8549 184.176 10.9822C186.358 10.1094 188.782 9.67304 191.449 9.67304C196.685 9.67304 200.661 10.9822 203.376 13.6004C206.092 16.2187 207.449 19.8552 207.449 24.5099H198.867C198.867 22.3765 198.334 20.8007 197.267 19.7825C196.201 18.7158 194.213 18.1824 191.303 18.1824C188.443 18.1824 186.527 19.0794 185.558 20.8734C184.637 22.6674 184.176 25.3584 184.176 28.9464V32.7283C184.176 38.4982 185.291 42.0377 187.521 43.3469C188.54 43.9772 189.873 44.2923 191.522 44.2923C193.17 44.2923 194.503 44.1469 195.522 43.856C196.588 43.5166 197.34 42.959 197.776 42.1832C198.261 41.4074 198.576 40.6559 198.722 39.9286C198.867 39.1528 198.964 38.0376 199.013 36.583Z" fill="white"/>
<path d="M244 40.2922V41.3832C243.709 45.0196 242.158 47.7591 239.345 49.6016C236.582 51.4441 233.115 52.3653 228.945 52.3653C222.787 52.3653 218.472 51.2501 215.999 49.0198C213.72 46.9833 212.581 43.9772 212.581 40.0013V39.1285H221.163C221.163 41.3589 221.745 42.8862 222.908 43.7105C224.072 44.5348 226.084 44.9469 228.945 44.9469C232.824 44.9469 234.763 43.5408 234.763 40.7286C234.763 38.4012 234.085 36.8497 232.727 36.0739C232.097 35.686 231.297 35.3951 230.327 35.2011L222.981 33.9647C216.581 32.9465 213.381 28.9464 213.381 21.9643C213.381 18.0854 214.787 15.0793 217.599 12.9459C220.46 10.764 224.072 9.67304 228.436 9.67304C238.376 9.67304 243.345 13.9641 243.345 22.5462V23.4917H235.127C235.03 21.2128 234.424 19.6612 233.309 18.837C232.194 18.0127 230.618 17.6006 228.581 17.6006C226.593 17.6006 225.09 18.0127 224.072 18.837C223.054 19.6128 222.545 20.4855 222.545 21.4552C222.545 24.219 223.66 25.7948 225.89 26.1827L234.691 27.7827C240.897 28.9464 244 33.1162 244 40.2922Z" fill="white"/>
</svg>
