<svg width="25" height="24" viewBox="0 0 25 24" fill="none" xmlns="http://www.w3.org/2000/svg">
<path fill-rule="evenodd" clip-rule="evenodd" d="M2.34644 12C2.34644 11.4477 2.79415 11 3.34644 11H12.3464C12.8987 11 13.3464 11.4477 13.3464 12C13.3464 12.5523 12.8987 13 12.3464 13H3.34644C2.79415 13 2.34644 12.5523 2.34644 12Z" fill="white"/>
<path fill-rule="evenodd" clip-rule="evenodd" d="M2.34644 6C2.34644 5.44772 2.79415 5 3.34644 5H12.3464C12.8987 5 13.3464 5.44772 13.3464 6C13.3464 6.55229 12.8987 7 12.3464 7H3.34644C2.79415 7 2.34644 6.55229 2.34644 6Z" fill="white"/>
<path fill-rule="evenodd" clip-rule="evenodd" d="M2.34644 18C2.34644 17.4477 2.79415 17 3.34644 17H12.3464C12.8987 17 13.3464 17.4477 13.3464 18C13.3464 18.5523 12.8987 19 12.3464 19H3.34644C2.79415 19 2.34644 18.5523 2.34644 18Z" fill="white"/>
</svg>
