<svg width="20" height="20" viewBox="0 0 20 20" fill="none" xmlns="http://www.w3.org/2000/svg">
<path d="M9.00115 3.91163L2.65526 14.926C2.55372 15.1023 2.50017 15.3023 2.5 15.5059C2.49983 15.7095 2.55305 15.9096 2.6543 16.086C2.75556 16.2625 2.90127 16.409 3.07678 16.5108C3.25229 16.6127 3.45142 16.6663 3.65411 16.6663H16.3459C16.5486 16.6663 16.7477 16.6127 16.9232 16.5108C17.0987 16.409 17.2444 16.2625 17.3457 16.0861C17.4469 15.9096 17.5002 15.7095 17.5 15.5059C17.4998 15.3023 17.4463 15.1023 17.3447 14.926L10.9988 3.91163C10.8975 3.73567 10.7518 3.58959 10.5765 3.48803C10.4012 3.38647 10.2024 3.33301 10 3.33301C9.79763 3.33301 9.59881 3.38647 9.4235 3.48803C9.24818 3.58959 9.10253 3.73567 9.00115 3.91163V3.91163Z" stroke="black" stroke-linecap="round" stroke-linejoin="round"/>
</svg>
