<svg width="20" height="20" viewbox="0px 0px 20px 20px" fill="none" xmlns="http://www.w3.org/2000/svg">
<path d="M6.04167 15.9202C6.61696 15.9202 7.08333 15.4539 7.08333 14.8786C7.08333 14.3033 6.61696 13.8369 6.04167 13.8369C5.46637 13.8369 5 14.3033 5 14.8786C5 15.4539 5.46637 15.9202 6.04167 15.9202Z" stroke="black" stroke-linecap="round" stroke-linejoin="round"/>
<path d="M14.3749 5.92025C14.9502 5.92025 15.4166 5.45388 15.4166 4.87858C15.4166 4.30328 14.9502 3.83691 14.3749 3.83691C13.7996 3.83691 13.3333 4.30328 13.3333 4.87858C13.3333 5.45388 13.7996 5.92025 14.3749 5.92025Z" stroke="black" stroke-linecap="round" stroke-linejoin="round"/>
<path d="M13.7499 4.25329C13.0555 3.55884 10.8333 2.58655 9.16659 4.25329C8.88881 4.53105 8.33325 5.08655 8.33325 6.75324C8.33325 7.58655 8.58325 8.25324 9.58325 9.25324" stroke="black"/>
<path d="M6.66658 15.5032C7.36103 16.1976 9.16651 17.5866 11.2499 15.5032C11.6666 15.0865 12.0833 14.3366 12.0833 13.0032C12.0833 12.5866 11.8333 11.5032 10.8333 10.5032" stroke="black"/>
<path d="M10.2084 10.9202C10.7837 10.9202 11.2501 10.4539 11.2501 9.87858C11.2501 9.30328 10.7837 8.83691 10.2084 8.83691C9.63312 8.83691 9.16675 9.30328 9.16675 9.87858C9.16675 10.4539 9.63312 10.9202 10.2084 10.9202Z" stroke="black" stroke-linecap="round" stroke-linejoin="round"/>
</svg>
