<svg width="50" height="49" viewBox="0 0 50 49" fill="none" xmlns="http://www.w3.org/2000/svg">
<g filter="url(#filter0_d)">
<path d="M25 19.125C27.0711 19.125 28.75 17.4461 28.75 15.375C28.75 13.3039 27.0711 11.625 25 11.625C22.9289 11.625 21.25 13.3039 21.25 15.375C21.25 17.4461 22.9289 19.125 25 19.125Z" fill="white" fill-opacity="0.1"/>
<path d="M25 19.125C27.0711 19.125 28.75 17.4461 28.75 15.375C28.75 13.3039 27.0711 11.625 25 11.625C22.9289 11.625 21.25 13.3039 21.25 15.375C21.25 17.4461 22.9289 19.125 25 19.125Z" stroke="white" stroke-linecap="round" stroke-linejoin="round"/>
</g>
<g filter="url(#filter1_d)">
<path d="M30.625 28.875C32.6961 28.875 34.375 27.1961 34.375 25.125C34.375 23.0539 32.6961 21.375 30.625 21.375C28.5539 21.375 26.875 23.0539 26.875 25.125C26.875 27.1961 28.5539 28.875 30.625 28.875Z" fill="white" fill-opacity="0.1"/>
<path d="M30.625 28.875C32.6961 28.875 34.375 27.1961 34.375 25.125C34.375 23.0539 32.6961 21.375 30.625 21.375C28.5539 21.375 26.875 23.0539 26.875 25.125C26.875 27.1961 28.5539 28.875 30.625 28.875Z" stroke="white" stroke-linecap="round" stroke-linejoin="round"/>
</g>
<g filter="url(#filter2_d)">
<path d="M19.375 28.875C21.4461 28.875 23.125 27.1961 23.125 25.125C23.125 23.0539 21.4461 21.375 19.375 21.375C17.3039 21.375 15.625 23.0539 15.625 25.125C15.625 27.1961 17.3039 28.875 19.375 28.875Z" fill="white" fill-opacity="0.1"/>
<path d="M19.375 28.875C21.4461 28.875 23.125 27.1961 23.125 25.125C23.125 23.0539 21.4461 21.375 19.375 21.375C17.3039 21.375 15.625 23.0539 15.625 25.125C15.625 27.1961 17.3039 28.875 19.375 28.875Z" stroke="white" stroke-linecap="round" stroke-linejoin="round"/>
</g>
<defs>
<filter id="filter0_d" x="5.75" y="0.125" width="38.5" height="38.5" filterUnits="userSpaceOnUse" color-interpolation-filters="sRGB">
<feFlood flood-opacity="0" result="BackgroundImageFix"/>
<feColorMatrix in="SourceAlpha" type="matrix" values="0 0 0 0 0 0 0 0 0 0 0 0 0 0 0 0 0 0 127 0"/>
<feOffset dy="4"/>
<feGaussianBlur stdDeviation="7.5"/>
<feColorMatrix type="matrix" values="0 0 0 0 1 0 0 0 0 0.651667 0 0 0 0 0.129167 0 0 0 0.8 0"/>
<feBlend mode="normal" in2="BackgroundImageFix" result="effect1_dropShadow"/>
<feBlend mode="normal" in="SourceGraphic" in2="effect1_dropShadow" result="shape"/>
</filter>
<filter id="filter1_d" x="11.375" y="9.875" width="38.5" height="38.5" filterUnits="userSpaceOnUse" color-interpolation-filters="sRGB">
<feFlood flood-opacity="0" result="BackgroundImageFix"/>
<feColorMatrix in="SourceAlpha" type="matrix" values="0 0 0 0 0 0 0 0 0 0 0 0 0 0 0 0 0 0 127 0"/>
<feOffset dy="4"/>
<feGaussianBlur stdDeviation="7.5"/>
<feColorMatrix type="matrix" values="0 0 0 0 1 0 0 0 0 0.651667 0 0 0 0 0.129167 0 0 0 0.8 0"/>
<feBlend mode="normal" in2="BackgroundImageFix" result="effect1_dropShadow"/>
<feBlend mode="normal" in="SourceGraphic" in2="effect1_dropShadow" result="shape"/>
</filter>
<filter id="filter2_d" x="0.125" y="9.875" width="38.5" height="38.5" filterUnits="userSpaceOnUse" color-interpolation-filters="sRGB">
<feFlood flood-opacity="0" result="BackgroundImageFix"/>
<feColorMatrix in="SourceAlpha" type="matrix" values="0 0 0 0 0 0 0 0 0 0 0 0 0 0 0 0 0 0 127 0"/>
<feOffset dy="4"/>
<feGaussianBlur stdDeviation="7.5"/>
<feColorMatrix type="matrix" values="0 0 0 0 1 0 0 0 0 0.651667 0 0 0 0 0.129167 0 0 0 0.8 0"/>
<feBlend mode="normal" in2="BackgroundImageFix" result="effect1_dropShadow"/>
<feBlend mode="normal" in="SourceGraphic" in2="effect1_dropShadow" result="shape"/>
</filter>
</defs>
</svg>
