<svg width="20" height="20" fill="none" xmlns="http://www.w3.org/2000/svg">
<path fill-rule="evenodd" clip-rule="evenodd" d="M16.9064 7.65104C16.865 7.65104 16.8252 7.6675 16.7959 7.69681L11.3272 13.1656L11.1799 13.0182L11.3272 13.1656C11.3127 13.1801 11.3012 13.1973 11.2933 13.2162C11.2855 13.2352 11.2814 13.2555 11.2814 13.276V15.3125C11.2814 15.354 11.2979 15.3937 11.3272 15.423C11.3565 15.4523 11.3962 15.4688 11.4377 15.4688H13.5389L19.0534 9.95426C19.0827 9.92496 19.0991 9.88522 19.0991 9.84378C19.0991 9.80234 19.0827 9.76259 19.0534 9.73329L17.0169 7.69681C16.9876 7.6675 16.9479 7.65104 16.9064 7.65104ZM16.5013 7.40218C16.6087 7.29474 16.7545 7.23438 16.9064 7.23438C17.0584 7.23438 17.2041 7.29474 17.3115 7.40218L19.348 9.43866C19.4555 9.54611 19.5158 9.69183 19.5158 9.84378C19.5158 9.99572 19.4555 10.1414 19.348 10.2489L13.7725 15.8244C13.7334 15.8635 13.6804 15.8854 13.6252 15.8854H11.4377C11.2857 15.8854 11.14 15.8251 11.0325 15.7176C10.9251 15.6102 10.8647 15.4645 10.8647 15.3125V13.276C10.8647 13.2008 10.8796 13.1263 10.9084 13.0568C10.9371 12.9873 10.9793 12.9241 11.0325 12.8709L16.5013 7.40218Z" fill="black"/>
<path fill-rule="evenodd" clip-rule="evenodd" d="M10.8865 13.1919C10.9646 13.1074 11.0964 13.1023 11.1809 13.1804L13.8083 15.6103C13.871 15.6684 13.892 15.7589 13.8611 15.8386C13.8302 15.9183 13.7538 15.971 13.6683 15.9716L3.66829 16.0417C3.55323 16.0425 3.45931 15.9498 3.4585 15.8348C3.4577 15.7197 3.55031 15.6258 3.66537 15.625L13.1387 15.5586L10.898 13.4863C10.8135 13.4082 10.8083 13.2764 10.8865 13.1919Z" fill="black"/>
<path fill-rule="evenodd" clip-rule="evenodd" d="M1.5 4.99967C1.5 4.76956 1.68655 4.58301 1.91667 4.58301H12.75C12.9801 4.58301 13.1667 4.76956 13.1667 4.99967C13.1667 5.22979 12.9801 5.41634 12.75 5.41634H7.30333V15.833C7.30333 16.0631 7.11679 16.2497 6.88667 16.2497C6.65655 16.2497 6.47 16.0631 6.47 15.833V5.41634H1.91667C1.68655 5.41634 1.5 5.22979 1.5 4.99967Z" fill="black"/>
<path fill-rule="evenodd" clip-rule="evenodd" d="M12.3334 6.74967L12.3334 4.99967C12.3334 4.76956 12.52 4.58301 12.7501 4.58301C12.9802 4.58301 13.1667 4.76956 13.1667 4.99967L13.1667 6.74967C13.1667 6.97979 12.9802 7.16634 12.7501 7.16634C12.52 7.16634 12.3334 6.97979 12.3334 6.74967Z" fill="black"/>
<path fill-rule="evenodd" clip-rule="evenodd" d="M13.75 15.9167C13.75 16.1008 13.6008 16.25 13.4167 16.25L2.58333 16.25C2.39924 16.25 2.25 16.1008 2.25 15.9167C2.25 15.7326 2.39924 15.5833 2.58333 15.5833L13.4167 15.5833C13.6008 15.5833 13.75 15.7326 13.75 15.9167Z" fill="black"/>
<path fill-rule="evenodd" clip-rule="evenodd" d="M11.0833 15.6663V13.333L13.4166 15.6663H11.0833Z" fill="black"/>
<path fill-rule="evenodd" clip-rule="evenodd" d="M1.24992 6.74967L1.24992 4.99967C1.24992 4.76956 1.43647 4.58301 1.66659 4.58301C1.8967 4.58301 2.08325 4.76956 2.08325 4.99967L2.08325 6.74967C2.08325 6.97979 1.8967 7.16634 1.66659 7.16634C1.43647 7.16634 1.24992 6.97979 1.24992 6.74967Z" fill="black"/>
<path fill-rule="evenodd" clip-rule="evenodd" d="M17.7485 11.6651L15.2501 9.1667L15.5447 8.87207L18.0431 11.3705L17.7485 11.6651Z" fill="black"/>
</svg>
