<svg width="46" height="43" viewBox="0 0 46 43" fill="none" xmlns="http://www.w3.org/2000/svg">
<g filter="url(#filter0_d)">
<path d="M31 12.539C30.405 12.8 29.771 12.973 29.11 13.057C29.5 12.5 30.309 12.013 30.553 11.244C29.919 11.622 29.219 11.889 28.473 12.038C27.871 11.397 27.013 11 26.077 11C24.261 11 22.799 12.474 22.799 14.281C22.799 14.541 22.821 14.791 22.875 15.029C20.148 14.896 17.735 13.589 16.114 11.598C15.831 12.089 15.665 12.651 15.665 13.256C15.665 14.392 16.25 15.399 17.122 15.982C16.595 15.972 16.078 15.819 15.64 15.578C15.64 15.588 15.64 15.601 15.64 15.614C15.64 17.208 16.787 18.3316 18.268 18.837C18.001 18.91 17.71 18.945 17.408 18.945C17.198 18.945 16.986 18.933 16.787 18.889C17.212 20.188 18.418 21.143 19.852 21.174C18.736 22.047 17.319 22.573 15.785 22.573C15.516 22.573 15.258 22.561 15 22.528C16.453 23.465 18.175 24 20.032 24C26.068 24 29.368 19 29.368 14.666C29.368 14.521 29.363 14.381 29.356 14.242C30.007 13.78 30.554 13.203 31 12.539Z" fill="white" fill-opacity="0.1"/>
<path d="M19.8606 20.7741C18.8277 20.7518 17.9267 20.1822 17.4304 19.3449C17.7548 19.3433 18.0741 19.3047 18.3735 19.2228L19.6303 18.8792L18.3972 18.4584C17.2261 18.0588 16.3463 17.2735 16.1058 16.2117C16.4266 16.3144 16.7675 16.3753 17.1144 16.3819L18.4786 16.4078L17.3443 15.6495C16.5784 15.1374 16.065 14.2526 16.065 13.256C16.065 12.9314 16.1194 12.6205 16.2191 12.3284C17.8927 14.1333 20.2348 15.3007 22.8555 15.4285L23.3816 15.4542L23.2651 14.9405C23.2192 14.7383 23.199 14.519 23.199 14.281C23.199 12.6937 24.4831 11.4 26.077 11.4C26.8985 11.4 27.6522 11.7484 28.1814 12.3118L28.3335 12.4738L28.5513 12.4303C28.8102 12.3786 29.0641 12.3134 29.3122 12.2349C29.1233 12.4209 28.9252 12.6235 28.7823 12.8276L28.2641 13.5677L29.1604 13.4538C29.3814 13.4257 29.5998 13.3882 29.815 13.3412C29.6002 13.5495 29.3701 13.7415 29.1245 13.9158L28.9455 14.0429L28.9565 14.2621C28.9633 14.3973 28.968 14.5301 28.968 14.666C28.968 18.828 25.8012 23.6 20.032 23.6C18.8174 23.6 17.6642 23.3612 16.6125 22.9244C17.9192 22.7702 19.1183 22.2558 20.0985 21.4891L20.9815 20.7983L19.8606 20.7741Z" stroke="black" stroke-width="0.8"/>
</g>
<defs>
<filter id="filter0_d" x="0" y="0" width="46" height="43" filterUnits="userSpaceOnUse" color-interpolation-filters="sRGB">
<feFlood flood-opacity="0" result="BackgroundImageFix"/>
<feColorMatrix in="SourceAlpha" type="matrix" values="0 0 0 0 0 0 0 0 0 0 0 0 0 0 0 0 0 0 127 0"/>
<feOffset dy="4"/>
<feGaussianBlur stdDeviation="7.5"/>
<feColorMatrix type="matrix" values="0 0 0 0 0.207843 0 0 0 0 0.607843 0 0 0 0 0.929412 0 0 0 1 0"/>
<feBlend mode="normal" in2="BackgroundImageFix" result="effect1_dropShadow"/>
<feBlend mode="normal" in="SourceGraphic" in2="effect1_dropShadow" result="shape"/>
</filter>
</defs>
</svg>
