<svg width="18" height="19" viewBox="0 0 18 19" fill="none" xmlns="http://www.w3.org/2000/svg">
<path d="M6.1875 11.75C8.20679 11.75 9.84375 10.113 9.84375 8.09375C9.84375 6.07446 8.20679 4.4375 6.1875 4.4375C4.16821 4.4375 2.53125 6.07446 2.53125 8.09375C2.53125 10.113 4.16821 11.75 6.1875 11.75Z" stroke="black" stroke-linecap="round" stroke-linejoin="round"/>
<path d="M10.9275 4.57368C11.4304 4.43199 11.9578 4.39971 12.4742 4.47902C12.9906 4.55833 13.484 4.74738 13.9212 5.03344C14.3584 5.3195 14.7293 5.69593 15.0087 6.13737C15.2882 6.57881 15.4698 7.07502 15.5414 7.59256C15.6129 8.11011 15.5727 8.63698 15.4235 9.13769C15.2743 9.63839 15.0195 10.1013 14.6763 10.4953C14.3331 10.8892 13.9095 11.205 13.434 11.4215C12.9584 11.6379 12.442 11.7499 11.9196 11.75" stroke="black" stroke-linecap="round" stroke-linejoin="round"/>
<path d="M1.12476 14.3795C1.69579 13.5672 2.45387 12.9043 3.33499 12.4466C4.21612 11.989 5.19443 11.75 6.18731 11.75C7.1802 11.75 8.15853 11.9888 9.03969 12.4464C9.92085 12.904 10.679 13.5669 11.2501 14.3791" stroke="black" stroke-linecap="round" stroke-linejoin="round"/>
<path d="M11.9194 11.75C12.9124 11.7493 13.8909 11.9878 14.7722 12.4455C15.6534 12.9031 16.4114 13.5664 16.982 14.3791" stroke="black" stroke-linecap="round" stroke-linejoin="round"/>
</svg>
